<svg version="1.2" xmlns="http://www.w3.org/2000/svg" viewBox="0 0 4000 4000" width="55" height="55"><style>.a{fill:#c3996b}.b{fill:#754c28}.c{fill:#6d6f71}.d{fill:#c1b49a}.e{fill:#bbbcbe}</style><path fill-rule="evenodd" d="m3282.5 3804.1c28.5 1.5 56.9 3.2 85.1 5.1-41.2 1.2-82.1 2-122.8 2.4q-5.5 1.8-11 3.4-17.1 5.1-34.2 9.5c-22.7 5.9-45.2 11-67.6 15.6-22.5 4.5-44.8 8.5-66.9 11.7-11 1.5-22.1 3-33 4.1-5.5 0.6-11 1.1-16.4 1.6-5.5 0.4-10.9 0.7-16.3 0.9 5.8-2.2 11.6-4.1 17.4-5.9 5.7-1.9 11.5-3.6 17.2-5.3 11.4-3.4 22.8-6.5 34.2-9.5 20.9-5.5 41.7-10.2 62.3-14.5l-87.9 11-145.6 18.1 0.6-1.4 146.6-20.5 132.3-18.2q-3.9 0-7.8 0-15.7 1.7-31.3 3.3c-24.5 2.5-48.9 4.7-73.2 6.7-48.5 4-96.5 7.3-144.2 9.9q-8 0.4-16 0.8l-69.6 7.7-9 1q-0.2 4.3 0.1 8.7 14.4 1 28.7 2-14.3 0.4-28.5 0.8 0.3 3 0.9 6.1 0.1 0.7 0.3 1.4-10.7 0.5-21.4 1l-13.3 2-71.5 10.9 107.7-7.6c1.2 4.6 2.9 9.2 5 13.5q-9 0.3-17.9 0.5-21.1 0.5-41.9 0.8l-192.6 13.9 143.1-31q-11 0.3-22 0.6-12.4 0.3-24.7 0.5-4.5 1-9.1 1.9c-29.6 5.9-58.1 11-85.8 15.5-27.8 4.6-54.7 8.6-80.6 11.8-12.9 1.5-25.6 3-37.9 4.1-6.2 0.6-12.3 1.1-18.2 1.6-5.9 0.4-11.8 0.7-17.4 0.9 8.4-2.2 16.4-4.1 24.3-5.9 8-1.9 15.7-3.6 23.5-5.3 15.4-3.4 30.4-6.5 45.3-9.5 27.2-5.5 53.5-10.2 79.2-14.5q0 0-0.1 0l-100.7 11-166.7 18.1 2.2-1.4 170.6-20.5 64.6-7.7q-3.7-0.1-7.3-0.2c24-2.8 47.1-5.1 70-7.2l26.3-3.2q-3.9 0.1-7.8 0.1-17.7 1.7-35.2 3.3c-27.4 2.5-54.4 4.7-81 6.7-53.2 4-105.1 7.3-155.7 9.9-50.7 2.6-100.2 4.5-148.4 5.7q-21.1 0.5-41.9 0.8l-192.6 13.9 143.1-31q-11.1 0.3-22.1 0.6c-24 0.6-47.8 1-71 1.1-23.2 0.1-46.1 0.1-67.7-0.7 29-3.4 56.8-6 84.3-8.6 27.5-2.4 54.5-4.6 81.1-6.7q13.8-1 27.4-2-27.4-0.8-54.6-1.9c-49.9-1.9-99.3-4-147.6-6.8l-33.2 2.9-150.8 13.1-151.1 13.2 9.8-6 323.9-41.6q-22.3-0.7-44.4-1.5-28.9-1.1-57.4-2.4l-172.6 24.2 11.7-8.1 110.4-18.4q-27.6-1.4-54.7-3c-27 4.4-53.2 8.2-78.4 11.4-12.9 1.5-25.6 3-37.9 4.1-6.2 0.6-12.3 1.1-18.2 1.5-6 0.5-11.8 0.8-17.4 1 8.3-2.2 16.4-4.1 24.3-5.9 7.9-1.9 15.7-3.6 23.4-5.4q11.9-2.6 23.4-5l-259 18.9-64.4 4.7 84.2-18.7 167.4-37.1-366.3 26.5 255.5-47.1q-10.3-0.4-20.5-0.8-86.9 8.1-173.9 15.3c-107.5 8.8-215.2 17-323.1 22.3 106.8-16.3 213.9-30 321-42.9q10.2-1.3 20.4-2.5c-16.2-1-32.2-2.1-48.1-3.2 31.4-0.9 62.3-1.5 92.9-2q47.7-5.5 95.5-10.8-15.1-2.1-30.1-4.2l-141.6 7.3-237.9 12.1-20.3 1 28-6.5 145.1-33.7q-23.1-0.7-46-1.5c-98.5 9.8-197.1 18.9-295.7 27.1-107.6 8.8-215.2 16.9-323.1 22.3 106.8-16.4 213.9-30 321-43q49.9-6 99.9-11.6l-109.7 2.7 239-29q-0.1 0-0.3 0-10.2-0.3-20.5-0.5-39.1 2.4-77.3 4.4c-50.7 2.6-100.2 4.5-148.4 5.7-24.1 0.6-47.8 1-71 1.1-12.7 0.1-25.3 0.1-37.7 0-92.8 7.3-185.7 14-278.7 18.7 104.2-16 208.7-29.4 313.3-42.1-19.8-1.2-39.5-2.5-58.9-3.9 37.6-1.1 74.4-1.8 110.9-2.2q49.7-5.9 99.5-11.4-3.1-0.6-6.2-1.1l-521.1-2.5 216.6-28.7q-64.6-1.4-128-3.4-45.1 3.9-90.1 7.7c-107.6 8.8-215.2 16.9-323.1 22.3 87.4-13.4 175-25 262.7-35.8-48.1-2.3-95.4-5-141.3-8.4 80.8-2.2 158.5-2.9 235-3q40.1-4.7 80.3-9.2l-487.6 1.9 422.8-30.6q-4.2-0.3-8.3-0.6l-334.5-3.2-0.1-4.2q-19.1 1.1-38.2 2 19-2.9 38.1-5.7l-0.1-8.1 92.6-4.9c63.4-8.6 126.9-16.6 190.3-24.3q5.9-0.7 11.7-1.3l-232.1-2.3-0.2-11.1h-27.1l-0.2-14.2c-38.2 2.5-76.4 4.7-114.7 6.6 38.1-5.8 76.3-11.3 114.5-16.5l-0.1-2.3 22.9-0.8c55.4-7.5 110.8-14.5 166.3-21.2l-109-0.3v-0.1h-17.5l-0.4-26.4 459.1-16.6-182.4 0.1-0.1-5.3-196.5-0.5-0.1-4c-80.1 6.2-160.2 11.8-240.5 15.8 34.2-5.3 68.4-10.2 102.7-15q-19.4 1.1-38.8 2.1c106.8-16.4 213.8-30 321-43q39-4.7 78.1-9.2l-122.9-0.8 139.1-1q18.6-2.1 37.3-4.2l-0.1-3.5 49-1.9q13.9-1.6 27.7-3l-146.3-7.5 0.4-13.3c-106.9 8.7-213.9 16.7-321.1 22.1 46.5-7.1 93-13.7 139.5-20q-37.2 2.3-74.5 4.2c91-14 182.1-25.9 273.4-37.2l0.2-8.3 66.3 0.2q27.3-3.2 54.7-6.4l-46.9-2.6 0.2-10.1c-54.1 3.8-108.4 7.2-162.7 9.9 106.8-16.4 213.9-30 321-43 88.4-10.5 176.8-20.4 265.4-29.6q10.4-4.6 21.4-8.9c-104.3 12.4-208.7 23.8-313.2 34.4-107.4 10.9-214.8 20.9-322.4 29.8-107.5 8.8-215.1 16.9-323 22.3 106.7-16.4 213.8-30 320.9-43 107.2-12.8 214.4-24.6 321.8-35.5 107.3-10.9 214.8-20.9 322.3-29.8q36.3-3 72.6-5.8c20.2-6.2 41.3-12 63.1-17.5q-6.7 0.7-13.5 1.4c-107.3 10.9-214.8 20.9-322.3 29.8-107.6 8.8-215.2 16.9-323.1 22.3 106.8-16.4 213.9-30 321-43 107.1-12.8 214.4-24.6 321.7-35.5 107.4-10.9 214.8-20.9 322.4-29.8 107.5-8.8 215.1-16.9 323-22.3-58.9 9.1-117.9 17.3-176.9 25q5.5 0 11 0c157.5 0 304.6 16.1 429.5 44.1q41-2.5 82-4.5c-20.6 3.1-41.3 6.2-62 9.2 222.5 53.2 369.3 144.7 369.3 248.7 0 50.1-34.2 97.4-94.5 138.9q13.2 1.4 26.4 2.9l214.5-1.5-12.9 18.8-34 1.7q21.3 2.5 42.8 5c120.4 14.4 236.4 29.2 346.1 44l79.4 0.4-6.7 9.6c36.7 5.1 72.6 10.2 107.6 15.4l2.4-0.1 112.9-2.6-63.4 10.3c84.6 12.6 163.7 25.1 236.1 37.3-16.1 4.9-32.1 10.6-47.8 17.3-19.3 8.3-35.4 19.2-45.1 38.6-1.3 2.5-2.4 5.2-3.3 8-49.1-0.2-98.2 0.3-147.2 2.6q0.3 0.1 0.6 0.2l93.5-2-50.2 9.4q3.3 0.2 6.6 0.4-5.2 0.2-10.4 0.3l-4.2 0.8c23.6 6.2 43.2 12.2 58.8 17.7 38.1 1.9 76.1 4 113.7 6.6-30.9 0.9-61.7 1.6-92.2 2.1 17.5 8.1 24 15.2 18.2 21.1q-1.2 1.2-3.1 2.3l191.9-5.7-145.9 18.5zm-388.4-13.1l-0.5 0.1q1.6 0 3.2 0-1.4 0-2.7-0.1zm-43.5-2.5q0 0.1-0.1 0.1l0.5-0.1q-0.2 0-0.4 0zm-2246.5-424.1l73.1-2.8-46 0.2q-13.5 1.3-27.1 2.6zm1798 469.7l-0.6 0.1q1.6 0 3.1 0-1.2-0.1-2.5-0.1zm-48.7-3l-14.6 2q5.9 0.1 11.9 0.2l11.2-1.7q-4.3-0.3-8.5-0.5zm-1759.5-582l141.4 1.4q66.8-7.2 133.7-14 22-2.3 44-4.5 9.1-5.7 18.8-11.3-98.5 9.3-197.2 17.5c-46.9 3.8-93.8 7.5-140.7 10.9zm-169.2 208.6l12.6-0.4v-0.7q-6.3 0.6-12.6 1.1zm-98.3 115.6l249.9-1.9q-12.6-3.6-24.1-7.2-12.5-0.6-25.1-1.2zm353.8 25.2q-5.3-1.2-10.5-2.5-10.2 1-20.4 2 15.5 0.2 30.9 0.5zm647.4 118.5q-5.5-0.8-11.1-1.7-50.2-1.1-99.7-2.5l-133.1 31.7 195.3-11.8c-18.8 0.4-37.5 0.7-55.9 0.8-23.1 0.1-46 0-67.7-0.7 29.1-3.4 56.9-6.1 84.4-8.6 27.4-2.5 54.4-4.7 81-6.7q3.4-0.3 6.8-0.5zm330.9 48.9q-45-1.1-89.5-2.5l-128 17.6zm-58.9 29.2q1.6-0.3 3.2-0.6-1.4-0.1-2.8-0.2 2.2-0.1 4.4-0.1c27.9-5.5 54.9-10.4 81.1-14.7q21.2-3.5 41.8-6.5l-53.9 3.9-161.9 36.1 8.7-0.6q5.4-1.3 10.7-2.5c7.9-1.9 15.7-3.6 23.4-5.3 15.5-3.4 30.5-6.6 45.3-9.5zm89.5 4.9q-16.3-0.9-32.5-1.9c-19 3.1-37.7 5.9-55.8 8.4zm122.4 5.6q-5-0.2-9.9-0.4-1.5 0.3-3.1 0.6 6.5-0.1 13-0.2zm35.9-20.7q-36.7-4.1-74-8.5-13.7 2.8-26.9 5.5c-19.1 3.8-37.7 7.2-56 10.4 38.3-0.5 76-0.8 113.4-1 14.7-2.3 29.3-4.5 43.5-6.4zm73.4 49q20.1-0.5 40-0.9l41.3-9.1zm21.8 4.2q-18.3-1.1-36.4-2.4l-139.5 17.1 28.1-2.3zm68.5-5.8l1.7-0.2-2.1 0.2q0.2 0 0.4 0zm284.6 0.2l22.9-3.8q-3.3-0.2-6.5-0.5-40.6-0.3-80.7-0.8-1.1 0.1-2.2 0.2c-6.1 0.6-12.2 1.1-18.2 1.5-5.9 0.4-11.8 0.8-17.3 0.9q6.2-1.5 12.1-3-22.5-0.3-45-0.8-13.8-0.2-27.5-0.5l-71.4 6.1c28.5-0.2 56.8-0.2 84.9-0.2 50.1 0 99.8 0.4 148.9 0.9zm-76.6 36.2l9.6-5.9 18-2.3q-12.6 0.6-25.1 1.2l-13.4 2-71.5 10.9zm206.5-14.6q-16.5-0.2-33-0.5l-22.6 2-141.9 12.4 41.1-2.9zm515.5-43.1q-27.7-0.4-55.3-0.8c-18.1 1.3-36 2.5-53.9 3.6q-1.2 2.9-2.2 5.7zm307.3-8.6l79.5-10.9-78.2 6.4-36.2 2.9q17.5 0.7 34.9 1.6z"/><path  d="m838 3096.1c-107.5 8.7-215.2 16.9-323.1 22.3 106.8-16.4 213.9-30.1 321-43 107.2-12.9 214.4-24.6 321.8-35.5 107.3-10.9 214.8-20.9 322.3-29.9 107.6-8.8 215.2-16.9 323.1-22.2-106.8 16.4-213.9 30-321 43-107.1 12.8-214.4 24.6-321.7 35.5-107.4 10.8-214.8 20.8-322.4 29.8z"/><path  d="m630.7 3152.4c-107.5 8.8-215.2 16.9-323.1 22.3 106.8-16.4 213.9-30 321-43 107.2-12.8 214.4-24.6 321.8-35.5 107.3-10.9 214.7-20.9 322.3-29.8 107.5-8.8 215.2-17 323.1-22.3-106.8 16.4-213.9 30.1-321 43-107.2 12.8-214.4 24.6-321.8 35.5-107.3 10.9-214.7 20.8-322.3 29.8z"/><path fill-rule="evenodd" class="a" d="m1764.1 3117.7c26 176.8 51.3 399 76.6 572-104 1.9-145.9-79.3-172.2-179.4-21.8-82.5-43.7-164.9-64.2-247.7-12.9-52.1-23.4-104.8-36-162.1 15.8 1.4 31.4 2.8 46.7 4.1-0.8 5.9 80 350.5 114.6 374.3-1.3-17.9-40.4-253.8-59.2-362.8-0.4-2.3-0.8-4.5-1.2-6.7 32.3 2.9 63.7 5.6 94.9 8.3zm-38.8-409.3c-18.6-1.3-36.9-2.5-55.1-3.8-37.6-362.9-61.6-721.9-58.9-1081.8 0-5.6-2.6-11.4-3.9-17.2-9.5 16.6-14.5 33.4-15.6 50.4-7.6 122.7-15 245.5-11.5 367.8 6.1 217.7 26.4 434.5 55.2 649.1 1.4 10.2 5.1 20.1 9.5 29.9-22.7-1.6-45.3-3.2-67.6-4.6-32.4-283.2-51.5-563.4-44.5-844.7 0.1-4.5-2.5-9.1-3.7-13.7-9.7 13.3-14.9 26.7-16.2 40.3-9.1 97.2-18 194.6-16 291.6 3.5 172.5 21.2 343.9 47.4 513.6 0.5 3.6 1.7 7.2 3 10.7-16.3-1.1-32.6-2.3-48.9-3.5-63-468.1-64.9-986.5-8.2-1454.2 64.4 9.7 144.5 18.6 237.6 26.4-37.8 478-36.1 970.9-2.6 1443.7zm113.4-2371.7c-22.1 185.4-44.3 371.3-66.6 558.2-79-5.7-149.4-12.2-210.4-19.2 4.1-23.5 8.3-47 13.3-70.2 31.1-146.5 60.6-293.6 96.6-438.1 5.2-20.8 13.3-38.7 23.3-54.2 37 8.5 86.1 16.3 143.8 23.5z"/><path  d="m3942 2660.6c22.6 30 32.1 71.4 25.9 113q-13.5 92-27.4 184c-12.1 73.5-37.4 122.4-72.1 156 0.3 10.4-0.3 20.7-2.4 30.6-11.4 54.1-22.4 108.3-34.7 162.1-36.2 150.1-125.1 379.7-125.1 388.6 0 65-435.9 173.1-1001.6 173.1-565.8 0-1047.2-108.1-1047.2-173.1 0-8.4-141-413.1-169.7-550.7-1.3-6-1.5-12.3-1.9-18.6-32.1-25.8-55.5-62.6-63.8-116.5-5.5-35.7-22.9-144.7-27.7-177.5q-4.3-29-8.6-58c-6.1-41.6 3.4-83 26-113-52.1-453.8-55.3-960.5-6-1415.2-35.1-93.2-35.1-281.1 67.4-385.5q2.4-17.1 4.7-34.2c69.4-160.6 163.5-546.6 163.5-553.3 0-65.1 469.8-102.3 1035.5-102.3 565.8 0 1043.9 48.4 1043.9 113.5 0 6.3 102.8 402.3 160.2 579 0.3 1 0 2.1 0.1 3.2 85.9 99.4 89.9 243.2 81.3 350.8-0.9 10.7-8.9 19.5-14.4 28.7 49.4 454.7 46 961.5-5.9 1415.3z"/><path fill-rule="evenodd" class="a" d="m2223.3 3739.4c-101.4-9.4-197.7-27.4-294.2-35-19-1.6-25.5-8.6-28.7-27.1-19.3-112.9-73.9-496.7-81.2-551.5 27.3-1 102.4 400.6 106.8 400.6 1.3-13.4-30-355.7-33-398.9 98 5.9 191.1 11.5 283.3 17.1 15.8 180.1 31.2 413.7 47 594.8zm-106.7-320c-6.9-73-3-147.2-22.2-224.3-48 54.4-30.2 168.8 22.2 224.3z"/><path class="a" d="m2142.8 2093.6c0 201.7 8.4 403.4 14 605.3 0.6 24.2-5.7 34.4-30.3 32.2-42.2-3.7-84.5-5.9-126.8-7.8-13.7-0.6-27.2-1.2-40.9-1.7 0.8-15.7 1.7-28.8 0.9-42-8-130.6-31.8-392.2-35.4-392.3-0.9 10.4-3.9-17.9-7.4-57.5 6.7-11.3 10.6-22.9 12.6-34.7 1.2 21 1.5 25.7 0-0.1 5.2-32.7-3.5-66.6-3.9-99.2-0.2-20.5 4.3-50.5-27.8-63.9 0.7 66.3-10.5 130.1 10.4 191.9 5 146.9 10.3 293.9 15.8 440.9 0.7 19.2 2.8 38.3 16.1 56.1-45.7-1.8-91.3-3.5-137-5.7-14.6-0.6-29.5-1-30.4-24.8-1.9-49.1-9.2-97.9-10.4-147-5.4-213.1-13.4-426.5-12.8-639.6 0.4-170.4 11.3-340.7 18.5-511 1.5-34.7 5.6-83.7 9.3-124 111.2 8.4 238.3 15.3 377.2 20.3 0.1 22.3 0.1 43.6-0.2 64.2-4.1 246.8-11.5 493.6-11.5 740.4z"/><path class="a" d="m1896.7 343.3c88.6 9.3 194.2 17 312.4 22.7-11.5 184.5-22.8 366.8-34.1 549.2-127.6-4.1-245.2-9.8-350.5-16.7 4.3-38.1 8.7-75.6 13.6-112.7 19.2-147.5 39.1-295 58.6-442.5z"/><path class="b" d="m1963.7 906.5c-48.5-2.5-95-5.1-139.2-8 4.3-38.1 8.7-75.6 13.6-112.7 19.2-147.5 39.1-295 58.6-442.5 74.4 7.8 161.3 14.4 257 19.7-74.8 167.6-138.7 349.7-190 543.5z"/><path class="b" d="m2148.9 3732.5c-71.9-7.2-156.4-16.2-219.8-21.2-19-1.5-25.5-8.6-28.7-27.1-19.3-112.9-73.9-496.6-81.2-551.4 27.3-1 102.4 400.6 106.8 400.6 1.3-13.4-30-355.7-33-398.9 17.5 1 36 2.1 54.9 3.1 52.7 212.9 120.4 412.4 201 594.9z"/><path class="b" d="m1867.4 2717.9q-32.1-1.3-64.3-2.8c-14.6-0.6-29.5-1-30.4-24.8-1.9-49.1-9.2-97.9-10.4-147-5.4-213.1-13.4-426.5-12.8-639.6 0.4-170.4 11.3-340.7 18.5-511 1.5-34.7 5.6-83.7 9.3-124 32.8 2.4 68.9 4.8 106.7 7-41.7 245.8-64 505.4-64 773.8 0 230.4 16.4 454.2 47.4 668.4z"/><path class="a" d="m2715.5 3158.7c139.2-3.4 275-6.8 414.9-10.2-18.1 178.8-35 419.2-53.5 600.9-129.6 16.2-250.9 9.4-377.9 9.4 5.5-173.3 10.9-422.7 16.5-600.1z"/><path class="a" d="m3606.2 3117.7c62.7-5.4 126.4-11 195.9-17.2-12.6 57.3-23.2 110-36 162.1-20.5 82.8-42.4 165.2-64.2 247.7-26.4 100.1-68.2 181.3-172.2 179.4 25.4-173 50.6-395.2 76.5-572z"/><path fill-rule="evenodd" class="a" d="m2901.6 332.4c-69.8 1-142.6 1.6-217.9 1.6-43.2 0-85.3-0.2-126.8-0.6-74.9-24-150.6-44.3-226.8-62.6-46.2-10.6-92.6-20.2-139.2-29.1 99.6-3.8 214.1-6.5 337-7.8 78.3 29.6 158.2 51.7 238.6 71.2 44.8 10.2 89.8 19.5 135.1 27.3zm-244.1-99.2c8.8 0 17.3-0.1 26.2-0.1 98.7 0 193.4 1 282 2.7 76.8 28.7 155.1 50.2 233.9 69.3 24.4 5.6 48.9 10.9 73.4 15.9-74.4 3.8-159.8 7-253.9 9.2-79.6-30.4-160.8-53-242.7-72.8q-59.2-13.4-118.9-24.2zm907.3 50.4c0 10.8-60.1 20.8-161.4 29-64-21.7-128.7-39.5-193.8-55.2q-40.7-9.2-81.5-17.4c260.9 8.8 436.7 25 436.7 43.6zm-1188.6 47.2c-334.8-7.2-573.6-25.6-573.6-47.2 0-14.2 101.6-26.9 264.8-36.1 83.4 28 167.9 50.5 252.8 71 18.6 4.3 37.3 8.2 56 12.3z"/><path class="c" d="m3879.4 935.8c28.9 66.3 41.1 158.4 35.6 207.9-2.3 20.7-13.4 37.3-34 40.2-238.8 33.3-719 47.2-1195.9 47.1-513-0.1-920.5-26.3-1213.6-56.4-2-5 8.4-33.8 9.5-40.2 267.4 26.3 557.3 67.2 1598.8 23.8-795.1-12-1000.2-34.6-1130.4-43.4-12.9-0.8 552.6 12 889.6-12.1 22.9-1.6-816.4-40.6-1011-45.3 610.7 8.2 1165.7-4 1188.8-8.8-476.1-13.9-1517.5-35.6-1512.2-74.6 5.4-39 3.5-21.2 5.3-31.7 0.4-2.7 3-10.4 6.2-18.1 241.6 33.6 674.7 56 1169 56 494.4 0 927.6-22.4 1169.1-56.1 17.5-1 24.2 9.2 25.2 11.7z"/><path class="c" d="m3902.8 2764.6c-7.8 50.7-15.4 100.2-23.2 149.3-4.7 29.9-11.8 59.3-15.3 89.3-2.2 19.7-11.2 26.6-29 28.2-150.9 14.4-301.4 33.2-452.5 43.2-232.3 15.4-465 21.6-697.6 20.7-232.6 0.9-465.3-5.3-697.6-20.7-151.1-10-301.7-28.8-452.5-43.2-17.9-1.6-26.8-8.5-29.1-28.2-1.4-12.7 0.8 0-1.4-12.7 32.1 33.3 692.7 95.6 1592.6 33.8-964.6-13.9-1103.5-48.2-1076-48.5 124.3-1 730.5 28.4 1207.4-55.1-803.9-3.1-1104.6-31.5-1134.1-38.3 0.6-2.6 427.6 4.3 914.6-39-596.7-4.6-1445.9-50.5-1537.9-74.7-0.7-4.2-1.3-7.2-2-10 307.4 24.4 756.4 39.8 1256.9 39.8 458.5 0 873.9-12.9 1176.7-33.9z"/><path class="a" d="m3876.4 1238.8c56.6 467.6 58.4 985.8-4.5 1453.7-75 5.4-148.4 10.4-226.8 15.9 33.5-472 34.6-966.3-3.2-1443.7 91.6-7.6 170.6-16.3 234.5-25.9z"/><path fill-rule="evenodd" class="a" d="m3155.4 1291c23 485.1 23.6 953.3 0.6 1439.8-145 3.9-287 7.8-429.9 11.6 0-488.7 0-958.5 0-1444.3 150.4-0.4 294.8-2.8 429.3-7.1zm-70.2 414.2c27.3-58.7 8.2-114.5-12-170.4-3.5 57.3-23.5 116 12 170.4zm14 115.5c0-19.2-15.3-55.9-18-75.1-5.2 0-14.4 53.7-15.6 72.1-0.4 6.9 3.8 53.7 8.9 60.8 6.7-6.1 24.7-51.5 24.7-57.8z"/><path class="a" d="m2654.8 3158.7c5.6 177.4 13.4 423.4 18.8 596.6-126.9 0-242.1 7.2-377.3-10.1-18.4-181.7-38.2-417.9-56.3-596.7 139.8 3.4 275.7 6.8 414.8 10.2z"/><path class="a" d="m2474.8 3653.8c-31.7-27.7-45.7-106.2-49-138.1-9.5-92.2-5.8-117-13.4-209.6-1.8-21.1-7.3-106 17.6-106 24.1 0 24.6 91.4 25.7 110.2 6.3 110.5 14.2 197.1 20.6 307.6 0.4 8.9-0.7 18-1.5 35.9z"/><path fill-rule="evenodd" class="a" d="m2644.3 1298.1c0 485.8 0 955.6 0 1444.3-142.9-3.8-284.9-7.7-429.9-11.6-23-486.5-22.5-954.7 0.6-1439.7 134.5 4.2 278.9 6.6 429.3 7zm-265.9 733.8c0.1-5.6-8.6 364-6.9 579.5 0.2 20.3 9.6 40.7 14.8 61 3.4-0.6 6.8-1 10.3-1.7 1.7-4.6 4.9-9.2 4.9-13.9 1.4-362.7-24-262.1-23.1-624.9zm103.5-565.5c0-5.7-22.7 697.4-20.9 912.7 0.2 20.4 9.6 40.8 14.7 61.2 3.5-0.7 6.9-1.2 10.4-1.7 1.7-4.6 4.9-9.4 4.9-14 1.4-362.7-10.1-595.5-9.1-958.2z"/><path class="a" d="m2544.9 2560.7c-24.4-19.9-33.2-152.7-12.5-203.7 29.1 35.9 36.3 174.8 12.5 203.7z"/><path class="a" d="m2485 375c59.4 1.1 120.3 1.8 182.7 1.9-4 181.1-8 362.5-12 546.2-146.4-0.2-287-2.3-418.6-6 13.3-181.7 26.6-364 40.1-548 24.1 1 48.9 1.8 73.7 2.6-6 66.2-17.9 239.9 2.9 414.1 13.5-212.7 33.5-354.7 42.7-412.8 18.6 0.5 37.2 1 56.2 1.4-1.1 73.2 1.1 159.5 11.4 246 6.2-97.1 13.7-179 20.9-245.4z"/><path fill-rule="evenodd" class="b" d="m1764.1 3117.7c26 176.8 51.3 399 76.6 572-104 1.9-145.9-79.3-172.2-179.4-21.8-82.5-43.7-164.9-64.2-247.7-12.9-52.1-23.4-104.8-36-162.1 15.8 1.4 31.4 2.8 46.7 4.1-0.8 5.9 80 350.5 114.6 374.3-1.3-17.9-40.4-253.8-59.2-362.8-0.4-2.3-0.8-4.5-1.2-6.7 32.3 2.9 63.7 5.6 94.9 8.3zm-38.8-409.3c-18.6-1.3-36.9-2.5-55.1-3.8-37.6-362.9-61.6-721.9-58.9-1081.8 0-5.6-2.6-11.4-3.9-17.2-9.5 16.6-14.5 33.4-15.6 50.4-7.6 122.7-15 245.5-11.5 367.8 6.1 217.7 26.4 434.5 55.2 649.1 1.4 10.2 5.1 20.1 9.5 29.9-22.7-1.6-45.3-3.2-67.6-4.6-32.4-283.2-51.5-563.4-44.5-844.7 0.1-4.5-2.5-9.1-3.7-13.7-9.7 13.3-14.9 26.7-16.2 40.3-9.1 97.2-18 194.6-16 291.6 3.5 172.5 21.2 343.9 47.4 513.6 0.5 3.6 1.7 7.2 3 10.7-16.3-1.1-32.6-2.3-48.9-3.5-63-468.1-64.9-986.5-8.2-1454.2 64.4 9.7 144.5 18.6 237.6 26.4-37.8 478-36.1 970.9-2.6 1443.7zm113.4-2371.7c-22.1 185.4-44.3 371.3-66.6 558.2-79-5.7-149.4-12.2-210.4-19.2 4.1-23.5 8.3-47 13.3-70.2 31.1-146.5 60.6-293.6 96.6-438.1 5.2-20.8 13.3-38.7 23.3-54.2 37 8.5 86.1 16.3 143.8 23.5z"/><path class="a" d="m3093.2 369.1c13.5 184 26.8 366.3 40.1 547.9-131.7 3.7-272.2 5.9-418.6 6.1-4.1-183.7-8.1-365.1-12.1-546.2 138.1-0.3 269.8-3 390.6-7.8z"/><path class="a" d="m3808.7 875.6c-61 7.1-131.4 13.6-210.5 19.3-22.3-187-44.4-372.8-66.5-558.2 19.8-2.5 38.2-5 55.9-7.7 21.9 70.3 56.7 190.9 94.9 357.3-6.2-143.3-33.9-282.7-53-364.1 16.7-2.9 32.4-5.9 46-9 9.9 15.5 18.1 33.4 23.3 54.2 35.9 144.5 65.4 291.6 96.6 438.1 5 23.2 9.2 46.6 13.3 70.1z"/><path class="b" d="m3551.2 3125.8c-7.4 54.8-13 109.4-22.1 163.4-19 113.1-39.9 275.2-59.2 388.1-3.1 18.5-9.6 25.5-28.8 27.1-96.3 7.6-192.6 37.2-294.2 46.6 15.9-181.1 31.3-426.3 47.1-606.4 92.3-5.6 185.4-11.2 283.4-17.1-3 43.2-27.9 280.9-36.6 358.8-1.4 13 2.3 26.7 3.6 40.1 4.5 0 62.9-289.8 76-377.3 3.7-24.3 3.5-24.3 30.8-23.3z"/><path class="b" d="m3602.3 1392.7c7.3 170.3 18.2 340.6 18.6 511 0.5 213.1-7.4 426.5-12.9 639.6-1.2 49.1-8.4 97.9-10.4 147-0.9 23.8-15.8 24.2-30.4 24.8-42.8 2.2-115.6-32-115.9-51-3.4-200.5-6.7-400.9-11.3-601.3-0.7-29.8-22.4 450.1-23.5 618.4-0.2 12.5 1.2 25.2 2.9 40.1-16.3 0.6-32.5 1.2-48.7 2-42.3 1.9-84.7 4.1-126.8 7.8-24.7 2.2-31-8-30.4-32.2 5.6-201.9 14.2-403.6 14-605.3 0-246.8-7.3-493.6-11.5-740.4-0.2-20.6-0.2-41.9-0.1-64.2 137.5-5 263.4-11.8 373.9-20.1 4.5 40.4 11.1 89.3 12.5 123.8z"/><path class="b" d="m3532.3 785.8c4.9 37.1 9.2 74.6 13.6 112.6-105.3 7-223 12.7-350.6 16.8-11.3-182.4-22.6-364.7-34-549.2 118.2-5.7 223.7-13.4 312.4-22.7 19.5 147.5 39.3 295 58.6 442.5z"/><path class="d" d="m2348.4 403.1c0 0-9.6 146.3 5.4 382.7-40.8-184-29.5-396-29.5-396z"/><path class="d" d="m2452.7 389.9c0 0-4.3-11.7 10.8 224.7-19.9-98.5-34.9-238-34.9-238z"/><path class="e" d="m3887.5 956.5c-224.1 36.7-660.2 61.5-1161.4 61.5-546.8 0-1016-29.6-1217.1-71.7 0.2-0.4 0.4-1.2 0.9-4 0.4-2.7 3-10.4 6.2-18.1 97.3 13.5 226.1 25.2 377 34.4 227.4 16.5 516.8 26.5 833 26.5 487.9 0 913.1-23.7 1142-58.7 7.1 2.9 10.6 7.7 11.3 9.4 2.9 6.6 5.5 13.7 8.1 20.7z"/><path class="e" d="m3895.4 2812.1c-288.4 22.8-635.3 37.6-1012.4 41.4 41.5-3 83.4-6.3 126.1-10.1-596.7-4.6-1445.9-50.5-1537.9-74.7-0.7-4.2-1.3-7.2-2-10 307.4 24.4 756.4 39.8 1256.9 39.8 458.5 0 873.9-12.9 1176.7-33.9-2.5 16.2-5 31.6-7.4 47.5z"/><path class="d" d="m1764.1 3117.7c26 176.8 51.3 399 76.6 572-10.5 0.2-19.9-1-29.1-2.4-31.1-152.7-57.6-347.3-78-572.3 10.1 0.9 20.5 1.8 30.5 2.7z"/><path class="d" d="m1671.4 2016.7c0-266.8 23.9-520.2 37.2-753.7 6.5 0.6 12.6 1.2 19.3 1.7-37.8 478-36.1 970.9-2.6 1443.7-6.9-0.5-13.5-0.9-20.3-1.4-11-215.2-33.6-448.3-33.6-690.3z"/><path class="d" d="m1736.2 892.2c20.7-220.2 47.4-410.2 78.4-558.7 7.9 1.1 15.7 2.2 24.1 3.2-22.1 185.4-44.3 371.3-66.6 558.2-12.3-0.9-24-1.8-35.9-2.7z"/><path class="a" d="m3214.8 363.2c96.5-5.4 184-12 258.9-19.9 19.6 147.5 39.4 295 58.6 442.5 4.9 37.1 9.3 74.6 13.6 112.7-88 5.7-185 10.6-288.8 14.5-11.3-203.4-25.6-388.5-42.3-549.8z"/><path class="d" d="m2673.6 3755.3c-18 0-38.8-0.3-56.7-0.3-6.3-177.8-10.7-391.8-15-597.6 17.7 0.4 35.1 0.8 52.9 1.3 5.6 177.4 13.4 423.4 18.8 596.6z"/><path class="d" d="m2655.7 923.1c-20.3 0-40.3-0.2-60.4-0.3 2.6-190.3 6.1-373.5 10.3-546.6 20.9 0.2 40.9 0.6 62.1 0.7-4 181.1-8 362.5-12 546.2z"/><path class="d" d="m2644.3 2742.4q-24.8-0.6-49.5-1.3c-3.8-284.1-5.7-583.7-5.7-890.9 0-187.6 0.7-372.3 2.1-552.5 17.7 0.1 35.2 0.3 53.1 0.4 0 485.8 0 955.6 0 1444.3z"/><path class="a" d="m3235.3 3140.8c72.3-4.3 165.9-8.7 242.2-13.3-3 43.2-34.4 385.5-33.1 398.9 4.5 0 79.5-401.6 106.8-400.6-7.2 54.8-61.9 438.6-81.2 551.5-3.1 18.5-9.6 25.5-28.7 27.1-76.5 6-183.5 17.8-262.4 25.2 18.7-168.5 44-370 56.4-588.8z"/><path class="d" d="m2116.6 3419.4c0.6 8.2-14.6-8.2-13.8 0-52.4-55.5-66.7-178.6-8.4-224.3-26.9 50.2-22.5 167.9 22.2 224.3z"/><path class="d" d="m2667 410.3c-63.4-0.4-125.3-1.4-185.3-2.9 1.1-11 2.2-22.2 3.3-32.4 12.6 0.2 25.9 0.2 38.6 0.4 46.9 1 95.2 1.5 144.1 1.8-0.2 11-0.5 22-0.7 33.1z"/><path class="d" d="m2207.2 396c-120.3-7.1-226.7-16.7-313.8-28.1q1.7-12.3 3.3-24.6c88.6 9.3 194.2 17 312.4 22.7-0.7 10.1-1.3 20-1.9 30z"/><path class="d" d="m2348.4 403.1c-25-1.1-49.4-2.2-73.4-3.4 0.7-10.3 1.5-20.3 2.2-30.6 24.1 1 48.9 1.8 73.7 2.6-0.7 8.6-1.6 19.3-2.5 31.4z"/><path class="d" d="m2396.5 373c18.6 0.5 37.2 1 56.2 1.4-0.2 10.3-0.1 21.4-0.1 32.2-20.5-0.5-40.8-1.2-60.9-1.9 1.8-12.2 3.5-23.2 4.8-31.7z"/><path class="d" d="m1688 326.1c2.3-4.3 4.3-8.9 6.9-12.9 37 8.5 86.1 16.3 143.8 23.5-0.9 7.6-1.8 15.3-2.8 23-64.6-10.2-115-21.5-147.9-33.6z"/><path class="d" d="m3597.8 360.7c-19.5 2.9-40.3 5.7-62.1 8.3-1.3-10.8-2.6-21.8-3.9-32.6 19.7-2.4 38.5-4.9 56.3-7.4 3 9.6 6.2 20.3 9.7 31.7z"/><path class="d" d="m2726.1 410.4c-7.6 0-15.1 0-22.7 0-0.3-11-0.5-22.1-0.7-33.1 7.8 0.1 15.5 0.2 23.4 0.2 129 0 252.4-2.6 367.2-7.1 0.8 11.1 1.6 21.9 2.4 33-115.4 4.5-239.8 7-369.6 7z"/><path class="d" d="m3690.7 343.3c-16.6 3.6-34.7 7-54.3 10.3-2.5-11.4-4.9-21.9-7.2-31.8 16.7-2.7 32.4-5.5 47-8.4 5.6 9.1 10.3 19.2 14.5 29.9z"/><path class="d" d="m3215 364.7c95.3-5.3 182.4-12.1 258.9-20q2.1 16.3 4.3 32.6c-76.6 8.1-164.1 14.9-259.9 20.2q-1.6-16.6-3.3-32.8z"/><path class="b" d="m3593.8 1303.4c-113.6 8.6-241.1 15.4-378 20.4 0-11.4 0-22.9 0.1-34.8 137.5-5 263.4-11.8 373.9-20.1 1.2 11 2.6 22.7 4 34.5z"/><path class="b" d="m3157 1325.7c-136.7 4.3-281.8 6.7-430.9 7.1 0-11.6 0-23.1 0-34.7 150.4-0.4 294.8-2.8 429.3-7.1q0.8 17.4 1.6 34.7z"/><path class="b" d="m3880.4 1273.2c-60.9 9.1-135.7 17.6-223.6 25.1q-6.1 0.5-12.2 1-1.3-17.3-2.7-34.6c91.6-7.6 170.6-16.3 234.5-25.9 1.4 11.4 2.7 22.9 4 34.4z"/><path class="b" d="m2215 1291.1c134.5 4.2 278.9 6.6 429.3 7 0 11.6 0 23.1 0 34.7-50.6-0.1-343.6-4.3-430.9-7.1q0.7-17.3 1.6-34.6z"/><path class="b" d="m1727.9 1264.7q-1.3 17.3-2.6 34.6-6-0.5-12-1c-89.5-7.7-165.5-16.3-227.1-25.7 1.4-11.4 2.7-22.9 4.1-34.3 64.4 9.7 144.5 18.6 237.6 26.4z"/><path class="b" d="m2154.5 1323.8c-137.8-5-266.1-11.9-380.3-20.6 1-11.8 2.1-23.5 3.1-34.5 111.2 8.4 238.3 15.3 377.2 20.3 0 11.9 0.1 23.4 0 34.8z"/><path class="b" d="m2714.7 3186.6c0.2-9.5 0.5-18.8 0.8-27.9 139.2-3.4 275-6.8 414.9-10.2q-1.6 15.7-3.2 31.9c-131.4 3.8-270.2 5.9-412.5 6.2z"/><path class="b" d="m3546.7 3160.5q-14.1 1-28.4 1.9 1.2-7.2 2.1-13.3c3.7-24.3 3.5-24.3 30.8-23.3q-2.3 17.4-4.5 34.7z"/><path class="b" d="m3474.1 3165.2c-88.4 5.4-183.4 9.8-283 13.2q1.4-17.2 2.9-33.8c92.3-5.6 185.4-11.2 283.4-17.1-0.5 7.4-1.7 20.6-3.3 37.7z"/><path class="b" d="m3606.2 3117.7c62.7-5.4 126.4-11 195.9-17.2-2.8 12.8-5.5 25.4-8.2 37.8-41.4 4.9-87.1 9.4-137.1 13.7q-27.5 2.4-56.2 4.6c1.9-13.2 3.8-26.2 5.6-38.9z"/><path class="b" d="m2179.3 3178.4c-99.8-3.4-194.8-7.8-283.3-13.2-1.5-17.9-2.6-31.2-3-37.7 98 5.9 191.1 11.5 283.3 17.1q1.5 16.6 3 33.8z"/><path class="b" d="m1838.5 3161.6q-7.3-0.5-14.5-1c-2.3-16-3.9-27.9-4.8-34.8 5-0.2 11.7 13.4 19.3 35.8z"/><path class="b" d="m1623.3 3143.5q-24.3-2.5-46.8-5.1c-2.7-12.5-5.4-25.1-8.2-37.9 15.8 1.4 31.4 2.8 46.7 4.1-0.2 1.2 2.9 15.9 8.3 38.9z"/><path class="b" d="m2655.7 3186.6c-142.3-0.3-281.1-2.4-412.6-6.2q-1.5-16.2-3.1-31.9c139.8 3.4 275.7 6.8 414.8 10.2 0.3 9.1 0.6 18.4 0.9 27.9z"/><path class="b" d="m1769.7 3156.6q-28.8-2.2-56.4-4.6-19.1-1.6-37.3-3.3c-2-11.7-3.9-22.7-5.6-32.6-0.4-2.3-0.8-4.5-1.2-6.7 32.3 2.9 63.7 5.6 94.9 8.3 1.9 12.7 3.8 25.7 5.6 38.9z"/><path class="b" d="m2715.8 3158.7c17.8-0.5 35.3-0.9 53-1.3-4.3 205.8-10.2 423.5-16.5 601.4-17.9 0-35.3 0-53.3 0 5.5-173.3 11.2-422.7 16.8-600.1z"/><path class="b" d="m2702.9 376.9c21.2-0.1 41.3-0.5 62.1-0.7 4.3 173.1 7.7 356.3 10.3 546.6-20.1 0.1-40 0.3-60.4 0.3-4-183.7-8-365.1-12-546.2z"/><path class="b" d="m2726.3 1298.1c17.9-0.1 35.4-0.3 53.1-0.4 1.4 180.2 2.2 364.9 2.2 552.5 0 307.2-2 606.8-5.8 890.9q-24.7 0.7-49.5 1.3c0-488.7 0-958.5 0-1444.3z"/><path class="b" d="m3636.7 3115c-20.4 225-47 419.6-78 572.3-9.2 1.4-18.6 2.6-29.1 2.4 25.3-173 50.6-395.2 76.5-572 10.1-0.9 20.5-1.8 30.6-2.7z"/><path class="b" d="m3665.3 2707c-6.8 0.5-13.4 0.9-20.3 1.4 33.5-472.8 35.2-965.7-2.6-1443.7 6.7-0.5 12.8-1.1 19.3-1.7 13.2 233.5 37.2 486.9 37.2 753.7 0 242-22.6 475.1-33.6 690.3z"/><path class="b" d="m3598.2 894.9c-22.3-186.9-44.5-372.8-66.6-558.2 8.4-1 16.1-2.1 24.1-3.2 31 148.5 57.7 338.5 78.4 558.7-11.9 0.9-23.6 1.8-35.9 2.7z"/><path class="b" d="m3649.5 318.4c0 0 20.7 143.2 32.9 367.5-25-224.3-53.2-364.1-53.2-364.1z"/><path class="b" d="m3073.2 1534.8c0 0 36 30.1 37.4 90.8 1.5 60.7-25.4 79.6-25.4 79.6 0 0 16.5-48.7 11.7-84.9-4.7-36.3-23.7-85.5-23.7-85.5z"/><path class="b" d="m3081.2 1745.6c0 0 18.9 38.9 20.4 79.3 1.4 40.4-25.5 53-25.5 53 0 0 12.8-41.6 12.8-66.2 0-25.1-7.7-66.1-7.7-66.1z"/><path class="a" d="m3602.3 1392.7c7.3 170.3 18.2 340.6 18.6 511 0.5 213.1-7.4 426.5-12.9 639.6-1.2 49.1-8.4 97.9-10.4 147-0.9 23.8-15.8 24.2-30.4 24.8-42.8 2.2-115.6-32-115.9-51-3.4-200.5-6.7-400.9-11.3-601.3-0.7-29.8-22.4 450.1-23.5 618.4-0.2 12.5 1.2 25.2 2.9 40.1-16.3 0.6-32.5 1.2-48.7 2-42.3 1.9-49.4 4.1-91.5 7.8-24.7 2.2-31-8-30.4-32.2 5.7-201.9 9.8-415.8 9.7-617.4 0-246.9-3.5-479.3-7.7-726-0.2-20.7 0.3-44.2 0.4-66.5 137.5-5 228.1-11.8 338.6-20.1 4.5 40.4 11.1 89.3 12.5 123.8z"/><path class="b" d="m3451.3 2664.1l-11.3-601.3 49.6 633z"/><path class="d" d="m1924 2664.7c0.7 19.2 2.8 38.3 16.1 56.1q-10.2-0.4-20.3-0.8c0 0-10.9-27-13.8-41.2-2.9-14.1-6.9-68.6-6.9-76.3 0-7.6 8.8-69.7 6.6-115.5-2.2-45.8-10.9-150.5-10.9-150.5v-61-37.1c0 0-15.3-37-18.6-78.5-3.2-41.4 12-125.3 12-125.3l9.6-2.7c0.7 66.3-10.5 130.1 10.4 191.9 5 146.9 10.3 293.9 15.8 440.9z"/><path class="d" d="m1636.1 2550.9l8.9 151.9c-4.4-9.8-8.1-19.7-9.5-29.9-28.8-214.6-49.1-431.4-55.2-649.1-3.5-122.3 3.9-245.1 11.5-367.8q0.2-3 0.6-6.1c8.4-29.4 15-44.3 15-44.3l-7.2 73.3v132.2 279.1z"/><path class="d" d="m1729.6 3478.9c-42-137-114.6-374.3-114.6-374.3-0.8 5.9 80 350.5 114.6 374.3z"/><path class="d" d=""/><path class="b" d="m2175.8 324.7c-225.7-9.1-373.2-24.1-373.2-41.1 0-14.2 101.6-26.9 264.8-36.1 36.4 12.2 73.1 23.4 109.8 33.8-13.7 5.9-21 12.2-20.4 18.9 0.9 8.5 7.7 16.7 19 24.5z"/><path class="b" d="m2501.5 234.2c-84.9 6.5-165.7 14.4-227.7 24.2q-41.4-8.8-82.9-16.7c92.5-3.6 197.7-6.1 310.6-7.5z"/><path  d="m1795.8 1798.3c18.9 14.2 37.2 28.9 55.5 43.5l54.8 43.8 55 43.6c18.4 14.5 36.9 29 55 44.3-21.5-10.1-41.9-22-61.8-34.8-19.8-12.8-39-26.7-57.5-41.4-18.5-14.7-36.3-30.3-53.2-46.7-17-16.5-33.2-33.7-47.8-52.3z"/><path  d="m1795.8 1735c20.4 8.7 39.5 20.2 57.7 32.6 18.3 12.5 35.7 26 52.8 39.7 17.1 13.8 33.8 27.8 50.8 41.5 16.9 13.8 34 27.2 51.7 40.6-20.7-8-40.2-19-58.7-31.1-18.5-12.2-36.1-25.6-53.1-39.4-17.2-13.7-33.8-27.9-50.5-42-16.7-14.1-33.5-27.9-50.7-41.9z"/><path  d="m1847.5 1706c7.2 3 14 6.7 20.7 10.5 6.7 3.8 13.3 7.9 19.7 12 12.9 8.3 25.5 17.2 37.7 26.4q18.3 13.9 35.6 29.1c11.4 10.2 22.6 20.8 32.9 32.5-14.1-6.7-27.2-14.8-40.1-23.1-12.8-8.5-25.3-17.3-37.5-26.6q-18.2-13.9-35.6-28.9c-11.5-10.1-22.8-20.6-33.4-31.9z"/><path  d="m3603.4 1087c11.1 2.3 21.5 5.7 31.9 9.2 10.2 3.6 20.4 7.4 30.4 11.5 10 4 20 8.3 29.8 12.8 9.9 4.7 19.8 9.5 29.4 15.5-11.4 0-22.4-1.9-33.2-4.4-10.8-2.5-21.3-5.9-31.6-10.1-10.3-4.1-20.2-9-29.8-14.6-9.5-5.7-18.7-12-26.9-19.9z"/><path  d="m3595 1058.8c10.7-0.5 21.1 1.4 31.2 3.9 10.1 2.7 19.8 6.2 29.2 10 9.5 3.9 18.6 8.1 27.7 12.5 9.1 4.5 18.1 9 27.4 14.2-10.7 0.9-21.2-0.7-31.3-3.1-10.2-2.5-20-5.9-29.4-9.8-9.5-3.9-18.7-8.2-27.7-12.8-9.1-4.7-18-9.3-27.1-14.9z"/><path  d="m3614.2 1039c7.8-0.7 15.1 0.4 22.2 1.7 7 1.5 13.9 3.5 20.6 6q10 3.8 19.4 9.1c6.3 3.6 12.4 7.6 17.9 13.1-7.8 0.4-15-0.7-22.1-2.1q-10.5-2.3-20.5-6.1-10-3.8-19.4-9c-6.3-3.6-12.4-7.5-18.1-12.7z"/><path  d="m3345.5 633.1c14.8 9.5 27.9 21.4 40.1 33.9 12.2 12.5 23.5 25.8 34.4 39.2 10.9 13.5 21.3 27.1 31.9 40.7 10.5 13.6 21.2 26.9 32.3 40.6-15.2-8.9-28.6-20.6-41.1-32.8-12.4-12.4-23.8-25.6-34.7-39.1-10.9-13.5-21.3-27.2-31.7-41z"/><path  d="m3379.1 604c5.4 3.4 10.2 7.3 15 11.2 4.7 4 9.2 8.1 13.7 12.4 8.8 8.5 17.1 17.4 25 26.6q12 13.9 22.6 28.8c7 10 13.7 20.3 19.3 31.6-10.3-7.2-19.4-15.5-28.2-24-8.8-8.5-17.1-17.4-25-26.7q-11.9-13.8-22.6-28.7c-7.1-9.9-13.8-20.1-19.8-31.2z"/><path  d="m2853.1 3416.2c14.9 9.5 27.9 21.4 40.2 33.9 12.2 12.5 23.5 25.8 34.4 39.2 10.8 13.5 21.3 27.1 31.9 40.7 10.5 13.6 21.2 26.9 32.3 40.6-15.2-8.9-28.6-20.6-41.1-32.8-12.4-12.4-23.9-25.6-34.8-39.1-10.9-13.5-21.2-27.2-31.6-41z"/><path  d="m2886.8 3387.1c5.3 3.4 10.2 7.3 14.9 11.2 4.8 4 9.3 8.1 13.7 12.4 8.8 8.5 17.2 17.4 25.1 26.6q11.9 13.9 22.6 28.8c7 10 13.7 20.3 19.2 31.6-10.3-7.2-19.4-15.5-28.2-24-8.7-8.5-17-17.4-24.9-26.7q-11.9-13.8-22.6-28.7c-7.1-9.9-13.9-20.1-19.8-31.2z"/></svg>